{"title":"X-Men Days of Future Past 2014 KORSUB HDRip READNFO x264 AC3-MiL","uid":10793195,"size":1475567058,"categoryP":"video","categoryS":"movies","magnet":"?xt=urn:btih:2d50578655d5f4227f6d0fe5f253ea1f72d08fea&amp;dn=X-Men+Days+of+Future+Past+2014+KORSUB+HDRip+READNFO+x264+AC3-MiL&amp;tr=udp%3A%2F%2Ftracker.openbittorrent.com%3A80&amp;tr=udp%3A%2F%2Fopen.demonii.com%3A1337&amp;tr=udp%3A%2F%2Ftracker.coppersurfer.tk%3A6969&amp;tr=udp%3A%2F%2Fexodus.desync.com%3A6969","seeders":3,"leechers":0,"uploader":"Xetron","files":5,"time":1408274598,"description":"General\n\nSource...............: KORSUB.2014.x264.720P [THANKS]\nIMDb Information.... : http://www.imdb.com/title/tt1877832/\nSample Included......: yes\n\nNOTES: New Source, This is like 5 mins longer than the others out, looks damn nice also, didnt bother cropping the subs off, enjoy\n\nGeneral\nComplete name                            : X-Men Days of Future Past 2014 KORSUB HDRip READNFO x264 AC3-MiLLENiUM.mkv\nFormat                                   : Matroska\nFormat version                           : Version 2\nFile size                                : 1.35 GiB\nDuration                                 : 2h 11mn\nOverall bit rate mode                    : Variable\nOverall bit rate                         : 1 473 Kbps\nEncoded date                             : UTC 2014-08-16 20:28:27\nWriting application                      : mkvmerge v7.1.0 ('Good Love') 32bit built on Jul 27 2014 12:59:18\nWriting library                          : libebml v1.3.0 + libmatroska v1.4.1\n\nVideo\nID                                       : 1\nFormat                                   : AVC\nFormat/Info                              : Advanced Video Codec\nFormat profile                           : [email protected]\nFormat settings, CABAC                   : Yes\nFormat settings, ReFrames                : 3 frames\nCodec ID                                 : V_MPEG4/ISO/AVC\nDuration                                 : 2h 11mn\nBit rate mode                            : Variable\nBit rate                                 : 1 188 Kbps\nMaximum bit rate                         : 40.0 Mbps\nWidth                                    : 720 pixels\nHeight                                   : 400 pixels\nDisplay aspect ratio                     : 16:9\nFrame rate mode                          : Constant\nFrame rate                               : 30.181 fps\nColor space                              : YUV\nChroma subsampling                       : 4:2:0\nBit depth                                : 8 bits\nScan type                                : Progressive\nBits/(Pixel*Frame)                       : 0.137\nStream size                              : 1.09 GiB (81%)\nWriting library                          : x264 core 142 r2453 ea0ca51\n\nAudio\nID                                       : 2\nFormat                                   : AC-3\nFormat/Info                              : Audio Coding 3\nMode extension                           : CM (complete main)\nFormat settings, Endianness              : Big\nCodec ID                                 : A_AC3\nDuration                                 : 2h 11mn\nBit rate mode                            : Constant\nBit rate                                 : 256 Kbps\nChannel(s)                               : 2 channels\nChannel positions                        : Front: L R\nSampling rate                            : 44.1 KHz\nBit depth                                : 16 bits\nCompression mode                         : Lossy\nStream size                              : 240 MiB (17%)\nLanguage                                 : English\nDefault                                  : Yes\nForced                                   : No\n\nPlot\n\nThe X-Men send Wolverine to the past in a desperate effort to change history and prevent an event that results in doom for both humans and mutants. \n &lt;a href=&quot;\nhttp://s28.postimg.org/8xpne4aml/vlcsnap_2014_08_16_22h32m53s54.png&quot; rel=&quot;nofollow&quot; target=&quot;_NEW&quot;&gt;\nhttp://s28.postimg.org/8xpne4aml/vlcsnap_2014_08_16_22h32m53s54.png&lt;/a&gt; &lt;a href=&quot;\nhttp://s28.postimg.org/y50jeddql/vlcsnap_2014_08_16_22h33m14s2.png&quot; rel=&quot;nofollow&quot; target=&quot;_NEW&quot;&gt;\nhttp://s28.postimg.org/y50jeddql/vlcsnap_2014_08_16_22h33m14s2.png&lt;/a&gt; &lt;a href=&quot;\nhttp://s28.postimg.org/yllr0t1hp/vlcsnap_2014_08_16_22h34m47s156.png&quot; rel=&quot;nofollow&quot; target=&quot;_NEW&quot;&gt;\nhttp://s28.postimg.org/yllr0t1hp/vlcsnap_2014_08_16_22h34m47s156.png&lt;/a&gt; &lt;a href=&quot;\nhttp://s28.postimg.org/coz80fob1/vlcsnap_2014_08_16_22h38m10s144.png&quot; rel=&quot;nofollow&quot; target=&quot;_NEW&quot;&gt;\nhttp://s28.postimg.org/coz80fob1/vlcsnap_2014_08_16_22h38m10s144.png&lt;/a&gt;","torrent":{"xt":"urn:btih:2d50578655d5f4227f6d0fe5f253ea1f72d08fea","amp;dn":"X-Men+Days+of+Future+Past+2014+KORSUB+HDRip+READNFO+x264+AC3-MiL","amp;tr":["udp%3A%2F%2Ftracker.openbittorrent.com%3A80","udp%3A%2F%2Fopen.demonii.com%3A1337","udp%3A%2F%2Ftracker.coppersurfer.tk%3A6969","udp%3A%2F%2Fexodus.desync.com%3A6969"],"infoHash":"2d50578655d5f4227f6d0fe5f253ea1f72d08fea","infoHashBuffer":{"type":"Buffer","data":[45,80,87,134,85,213,244,34,127,109,15,229,242,83,234,31,114,208,143,234]},"announce":[],"urlList":[]}}